<svg xmlns="http://www.w3.org/2000/svg" width="167.392" height="57.12" viewBox="0 0 167.392 57.12">
  <g id="Group_10059" data-name="Group 10059" transform="translate(1836.18 -96.404)">
    <path id="Path_19588" data-name="Path 19588" d="M398.783,220.335V195.943l-21.116-12.192v-4.12l3.568-2.06,21.125,12.2,21.125-12.2,3.568,2.06v4.12l-21.117,12.192v24.393L402.36,222.4Z" transform="translate(-2213.846 -68.876)" fill="#ae5312" fill-rule="evenodd"/>
    <path id="Path_19589" data-name="Path 19589" d="M411.07,99.408l20.111,11.611,20.1-11.606-7.521-4.342-5.069-2.927h0l-1.7.979-.64.369-2.733,1.578-4.9,2.826,5.069,2.927,4.9-2.826,2.452,1.416-9.965,5.753-9.973-5.758,5.952-3.436,3.373-1.947.64-.369,2.733-1.578.64-.369,1.7-.979L431.173,87.8Z" transform="translate(-2242.703 8.674)" fill="#7d7c7d" fill-rule="evenodd"/>
    <path id="Path_19590" data-name="Path 19590" d="M451.284,99.413l-5.068-2.926-5.994,3.461h0l-9.04,5.219-9.973-5.758,9.965-5.753h0l5.069-2.926L431.174,87.8l-20.1,11.606,20.111,11.611Z" transform="translate(-2242.704 8.674)" fill="#7d7c7d" fill-rule="evenodd"/>
    <path id="Path_19591" data-name="Path 19591" d="M112.7,314.348h10.974a26.651,26.651,0,0,1-.395,4.387,10.148,10.148,0,0,1-1.777,4.049,9.13,9.13,0,0,1-3.823,3.159,12.282,12.282,0,0,1-4.951.988,11.206,11.206,0,0,1-8.181-3.089,10.833,10.833,0,0,1-3.16-8.11,11.111,11.111,0,0,1,3.2-8.322,11.415,11.415,0,0,1,8.336-3.131,10.946,10.946,0,0,1,5.741,1.481,9.843,9.843,0,0,1,3.85,4.472l-5.247,2.172a5.472,5.472,0,0,0-1.749-2.427,4.474,4.474,0,0,0-2.849-.93,4.611,4.611,0,0,0-3.963,1.918,7.836,7.836,0,0,0-1.538,4.2,1.5,1.5,0,0,0-.028.3v.466a7.879,7.879,0,0,0,1.5,4.457,4.743,4.743,0,0,0,4.119,2.031,4.934,4.934,0,0,0,3.047-.931,3.691,3.691,0,0,0,1.411-2.765H112.7v-4.373Zm18.534-2.595v14.472H126.1V311.753Zm-2.567-8.435a2.873,2.873,0,0,1,2.031.875,2.873,2.873,0,1,1-4.909,2.031,2.805,2.805,0,0,1,.846-2.05,2.762,2.762,0,0,1,2.031-.856Zm5.783,22.907V302.81h5.134v10.353a5.219,5.219,0,0,1,1.848-1.312,6.911,6.911,0,0,1,2.215-.55h.423a6.635,6.635,0,0,1,5.233,2.3,8.24,8.24,0,0,1-.014,10.819,6.729,6.729,0,0,1-5.275,2.285h-.339a6.256,6.256,0,0,1-2.285-.55,3.952,3.952,0,0,1-1.749-1.509l-.057-.028v1.608Zm8.266-10.494a3.179,3.179,0,0,0-2.426,1,3.328,3.328,0,0,0-.875,2.3,3.248,3.248,0,0,0,.875,2.313,3.639,3.639,0,0,0,4.866,0,3.293,3.293,0,0,0,.861-2.323,3.371,3.371,0,0,0-.861-2.309,3.073,3.073,0,0,0-2.44-.978Zm10.974,10.494V302.81h5.134v10.353a5.217,5.217,0,0,1,1.848-1.312,6.911,6.911,0,0,1,2.215-.55h.423a6.636,6.636,0,0,1,5.233,2.3,8.24,8.24,0,0,1-.014,10.819,6.728,6.728,0,0,1-5.275,2.285h-.339a6.256,6.256,0,0,1-2.285-.55,3.952,3.952,0,0,1-1.749-1.509l-.056-.028v1.608Zm8.265-10.494a3.178,3.178,0,0,0-2.426,1,3.329,3.329,0,0,0-.875,2.3,3.249,3.249,0,0,0,.875,2.313,3.639,3.639,0,0,0,4.866,0,3.294,3.294,0,0,0,.861-2.323,3.372,3.372,0,0,0-.861-2.309,3.073,3.073,0,0,0-2.44-.978Zm22.428-3.526-1.721,3.273a6.228,6.228,0,0,0-.747-.311,6.411,6.411,0,0,0-.833-.226q-.31-.056-.606-.1a4.1,4.1,0,0,0-.578-.042q-.141,0-.3.014a1.062,1.062,0,0,0-.3.07,1.969,1.969,0,0,0-.705.3.69.69,0,0,0-.31.606.782.782,0,0,0,.409.72,3.153,3.153,0,0,0,.917.352,4.367,4.367,0,0,0,.536.127q.253.042.451.071a6.939,6.939,0,0,1,3,1.326,3.564,3.564,0,0,1,1.2,2.962,4.371,4.371,0,0,1-2.031,4.02,8.969,8.969,0,0,1-4.485,1.34h-.311a10.993,10.993,0,0,1-3.033-.423,11.79,11.79,0,0,1-2.807-1.213L174,321.457a6.258,6.258,0,0,0,1.1.663,12.527,12.527,0,0,0,1.269.522,8.431,8.431,0,0,0,.874.225,4.169,4.169,0,0,0,.818.085,2.167,2.167,0,0,0,.24-.014c.085-.009.174-.023.268-.042a1.853,1.853,0,0,0,.762-.338.832.832,0,0,0,.339-.706.914.914,0,0,0-.593-.888,6.759,6.759,0,0,0-1.41-.438q-.311-.056-.607-.127t-.607-.155a6.02,6.02,0,0,1-2.215-1.086,3.251,3.251,0,0,1-1-2.722,4.257,4.257,0,0,1,1.947-3.865,7.955,7.955,0,0,1,4.26-1.269h.17a14.011,14.011,0,0,1,2.44.212,9.789,9.789,0,0,1,2.327.72V312.2Zm18.505,14.021-1.834-1.975A16.133,16.133,0,0,1,197.8,326a10.994,10.994,0,0,1-3.6.79h-.423A7.6,7.6,0,0,1,189,325.209a5.336,5.336,0,0,1-2.046-4.486A5.134,5.134,0,0,1,188.236,317a10.158,10.158,0,0,1,3.287-2.2l.508-.254-.451-.62a1.383,1.383,0,0,1-.169-.212q-.084-.126-.169-.24a9.236,9.236,0,0,1-.818-1.368,4.168,4.168,0,0,1-.367-1.848,5.1,5.1,0,0,1,2.017-4.3,7.365,7.365,0,0,1,4.584-1.537,7.548,7.548,0,0,1,4.6,1.523,5,5,0,0,1,2.06,4.26,4.261,4.261,0,0,1-1.143,3.131,10.263,10.263,0,0,1-2.807,1.975l2.68,2.792q.789-.677,1.495-1.41a13.24,13.24,0,0,0,1.3-1.58l3.132,2.962-2.68,2.878-.254.254,4.767,5.022Zm-4.852-5.275-3.357-3.611q-.113.085-.212.155t-.212.155a5.759,5.759,0,0,0-1.086.945,1.9,1.9,0,0,0-.494,1.312,1.6,1.6,0,0,0,.649,1.34,2.809,2.809,0,0,0,1.411.578.532.532,0,0,0,.169.028h.17a4.882,4.882,0,0,0,1.551-.254,8,8,0,0,0,1.411-.621v-.028Zm-1.072-8.238a.233.233,0,0,0,.071-.014.178.178,0,0,0,.071-.042,5.435,5.435,0,0,0,1.269-1.058,2.125,2.125,0,0,0,.564-1.453,2.046,2.046,0,0,0-.508-1.4,1.714,1.714,0,0,0-1.354-.578,1.789,1.789,0,0,0-1.255.48,1.64,1.64,0,0,0-.522,1.269,2.224,2.224,0,0,0,.352,1.171,6.407,6.407,0,0,0,.8,1.058,2,2,0,0,0,.254.31,3.375,3.375,0,0,1,.254.283Z" transform="translate(-1879.2 -206.406)" fill="#7d7c7d" fill-rule="evenodd"/>
    <path id="Path_19592" data-name="Path 19592" d="M117.668,397.493v6.629a5.484,5.484,0,0,0-2.144-1.721,6.445,6.445,0,0,0-2.708-.592,5.308,5.308,0,0,0-4.1,1.706,5.969,5.969,0,0,0-1.566,4.189,5.7,5.7,0,0,0,1.594,4.147,5.548,5.548,0,0,0,4.161,1.636,6.021,6.021,0,0,0,2.624-.607,6.312,6.312,0,0,0,2.144-1.651v6.6q-.762.253-1.439.437t-1.326.324a9.435,9.435,0,0,1-1.03.169,10.045,10.045,0,0,1-1.086.056,11.569,11.569,0,0,1-4.274-.8,12.17,12.17,0,0,1-3.71-2.3,9.869,9.869,0,0,1-2.582-3.625,11.6,11.6,0,0,1-.832-4.415,11.323,11.323,0,0,1,.8-4.2,10.669,10.669,0,0,1,2.328-3.583,11.545,11.545,0,0,1,3.583-2.468,11.07,11.07,0,0,1,4.26-.973h.254a11.729,11.729,0,0,1,2.581.282,14.745,14.745,0,0,1,2.469.79v-.028Zm8.435,6.291v2.369h.056a4.636,4.636,0,0,1,1.961-1.918,5.945,5.945,0,0,1,2.722-.621l.988-.028v4.937a.822.822,0,0,1-.212-.085.831.831,0,0,0-.212-.085,3.5,3.5,0,0,0-.846-.225,6.859,6.859,0,0,0-.9-.056,2.978,2.978,0,0,0-2.849,1.255,6.282,6.282,0,0,0-.705,3.117v5.812h-5.135V403.784Zm12.779,0v14.472h-5.134V403.784Zm-2.567-8.435a2.873,2.873,0,0,1,2.031.875,2.873,2.873,0,1,1-4.908,2.031,2.8,2.8,0,0,1,.846-2.05,2.761,2.761,0,0,1,2.031-.856Zm9.591,8.435,3.47,7.419,3.441-7.419h5.755l-7.561,14.472H147.74l-7.588-14.472Zm28.8,7.56v.536h-10.8a3.3,3.3,0,0,0,.818,2.412,3.216,3.216,0,0,0,2.4.832,3.094,3.094,0,0,0,1.425-.31,2.593,2.593,0,0,0,1.029-1.016h4.937a5.549,5.549,0,0,1-2.75,3.757,9.379,9.379,0,0,1-4.613,1.18,9.136,9.136,0,0,1-5.98-1.961,6.95,6.95,0,0,1-2.4-5.712,7.317,7.317,0,0,1,2.243-5.671,8.2,8.2,0,0,1,5.769-2.06,7.706,7.706,0,0,1,5.854,2.173,8.144,8.144,0,0,1,2.074,5.868v-.028Zm-10.72-2.426h5.953a2.592,2.592,0,0,0-1.03-1.636,3.061,3.061,0,0,0-1.875-.62,3.445,3.445,0,0,0-1.975.569,2.552,2.552,0,0,0-1.072,1.688Zm18.2-14.077v23.415h-5.134V394.841Zm8.519,0v23.415H185.57V394.841Zm8.52,8.943v14.472H194.09V403.784Zm-2.567-8.435a2.873,2.873,0,0,1,2.031.875,2.873,2.873,0,1,1-4.908,2.031,2.8,2.8,0,0,1,.846-2.05A2.761,2.761,0,0,1,196.657,395.349Z" transform="translate(-1879.2 -272.042)" fill="#7d7c7d" fill-rule="evenodd"/>
    <path id="Path_19593" data-name="Path 19593" d="M612.91,232.034v5.853l-5.994,3.461h0l-9.039,5.219v11.516l9.965-5.753h0l5.069-2.927v5.854l-20.1,11.606V243.64Z" transform="translate(-2399.703 -115.926)" fill="#7d7c7d" fill-rule="evenodd"/>
    <path id="Path_19594" data-name="Path 19594" d="M458.525,449.124a3.845,3.845,0,0,1,2.716,1.17,3.842,3.842,0,1,1-6.565,2.718,3.754,3.754,0,0,1,1.133-2.742A3.691,3.691,0,0,1,458.525,449.124Z" transform="translate(-2131.16 -310.756)" fill="#7d7c7d" fill-rule="evenodd"/>
  </g>
</svg>
