<svg class="social-icon social-icon--instagram" xmlns="http://www.w3.org/2000/svg" viewBox="0 0 19.99369 19.99369">
    <title>Instagram</title>
    <path d="M9.99683,0c-2.715,0-3.05544.01151-4.12167.06016A7.33681,7.33681,0,0,0,3.44849.52484a4.89983,4.89983,0,0,0-1.77063,1.153A4.90029,4.90029,0,0,0,.5248,3.44849,7.33783,7.33783,0,0,0,.06012,5.87516C.01147,6.94143,0,7.28183,0,9.99683s.01147,3.05543.06012,4.1217A7.33757,7.33757,0,0,0,.5248,16.54516a4.9,4.9,0,0,0,1.15306,1.77063,4.9006,4.9006,0,0,0,1.77063,1.1531,7.33886,7.33886,0,0,0,2.42667.46468c1.06623.04861,1.40671.06012,4.12167.06012s3.05539-.01151,4.12166-.06012a7.33886,7.33886,0,0,0,2.42667-.46468,5.1122,5.1122,0,0,0,2.92369-2.92373,7.33654,7.33654,0,0,0,.46468-2.42663c.04865-1.06627.06016-1.4067.06016-4.1217s-.01151-3.0554-.06016-4.12167a7.33681,7.33681,0,0,0-.46468-2.42667,4.90029,4.90029,0,0,0-1.15306-1.77063,4.8995,4.8995,0,0,0-1.77063-1.153A7.33681,7.33681,0,0,0,14.11849.06016C13.05222.01151,12.71183,0,9.99683,0m0,1.80123c2.66928,0,2.98543.01016,4.03956.05825a5.53166,5.53166,0,0,1,1.85627.34425,3.09743,3.09743,0,0,1,1.14948.74778A3.09843,3.09843,0,0,1,17.79,4.101a5.53273,5.53273,0,0,1,.34421,1.85627c.048,1.05413.05825,1.37032.05825,4.03957s-.0102,2.98547-.05825,4.03956A5.53279,5.53279,0,0,1,17.79,15.8927,3.3107,3.3107,0,0,1,15.89266,17.79a5.53169,5.53169,0,0,1-1.85627.34421c-1.054.04809-1.37008.05829-4.03956.05829s-2.9856-.0102-4.03957-.05829A5.532,5.532,0,0,1,4.101,17.79a3.09729,3.09729,0,0,1-1.14944-.74782,3.0977,3.0977,0,0,1-.74782-1.14944,5.533,5.533,0,0,1-.34421-1.85627c-.04809-1.05413-.05825-1.37032-.05825-4.0396s.01016-2.98544.05825-4.03957A5.533,5.533,0,0,1,2.20369,4.101a3.09746,3.09746,0,0,1,.74782-1.14944A3.09729,3.09729,0,0,1,4.101,2.20373a5.5319,5.5319,0,0,1,1.85627-.34425c1.05417-.04809,1.37032-.05825,4.03961-.05825" fill="#ff5405"></path>
    <path d="M9.99683,13.32913a3.33229,3.33229,0,1,1,3.3323-3.3323,3.33234,3.33234,0,0,1-3.3323,3.3323m0-8.4658a5.13352,5.13352,0,1,0,5.13349,5.1335,5.13353,5.13353,0,0,0-5.13349-5.1335" fill="#ff5405"></path>
    <path d="M16.53278,4.66051a1.19962,1.19962,0,1,1-1.1996-1.19961,1.19958,1.19958,0,0,1,1.1996,1.19961" fill="#ff5405"></path>
</svg>