<svg id="linkedin" xmlns="http://www.w3.org/2000/svg" width="28.069" height="27.992" viewBox="0 0 28.069 27.992">
  <path id="Path_238" data-name="Path 238" d="M.46,9.28H6.289V27.992H.46ZM3.374,0A3.355,3.355,0,0,1,6.749,3.374,3.374,3.374,0,0,1,0,3.374H0A3.355,3.355,0,0,1,3.374,0" fill="#ff5405"/>
  <path id="Path_239" data-name="Path 239" d="M25.838,23.454H31.4v2.569h.077A6.142,6.142,0,0,1,37,22.994c5.867,0,6.979,3.873,6.979,8.9V42.167H38.147V33.079c0-2.186-.038-4.985-3.029-4.985-3.029,0-3.489,2.377-3.489,4.793v9.241H25.8l.038-18.674Z" transform="translate(-15.907 -14.175)" fill="
  	#ff5405"/>
</svg>
