<svg xmlns="http://www.w3.org/2000/svg" width="34.151" height="27.763" viewBox="0 0 34.151 27.763">
  <path id="twitter" d="M10.287,21.761a7.086,7.086,0,0,1-6.547-4.85,6.98,6.98,0,0,0,3.031-.081.125.125,0,0,0,.081-.04A7.168,7.168,0,0,1,2.285,13.6a6.787,6.787,0,0,1-1.01-3.718,7.033,7.033,0,0,0,3.112.849,7.266,7.266,0,0,1-2.91-4.244A7.37,7.37,0,0,1,2.285,1.31,20.133,20.133,0,0,0,16.753,8.666c-.04-.283-.081-.525-.121-.768A7.01,7.01,0,0,1,22.412.138a6.883,6.883,0,0,1,6.143,1.94.309.309,0,0,0,.364.081A15.249,15.249,0,0,0,33,.583c.04,0,.04-.04.081-.04h.04a7.146,7.146,0,0,1-2.991,3.8,13.427,13.427,0,0,0,3.92-1.051v.04c-.242.364-.525.687-.808,1.051A13.143,13.143,0,0,1,30.7,6.807a.222.222,0,0,0-.121.2,20.044,20.044,0,0,1-.121,3.112,20.478,20.478,0,0,1-1.819,6.224,19.3,19.3,0,0,1-3.8,5.537,18.3,18.3,0,0,1-9.619,5.456,18.218,18.218,0,0,1-3.92.445A19.706,19.706,0,0,1,.062,24.751c-.04,0-.081-.04-.162-.081a14.2,14.2,0,0,0,6.992-.97A13.992,13.992,0,0,0,10.287,21.761Z" transform="translate(0.1 -0.029)" fill="#ff5405"/>
</svg>
