<svg xmlns="http://www.w3.org/2000/svg" width="34.923" height="24.479" viewBox="0 0 34.923 24.479">
  <path id="youtube" d="M3.571,23.761a4.093,4.093,0,0,1-2.688-2.6C-.269,17.959-.61,4.607,1.608,2A4.494,4.494,0,0,1,4.552.426C10.567-.214,29.167-.129,31.3.639A4.152,4.152,0,0,1,33.946,3.2c1.28,3.285,1.322,15.273-.171,18.472a4.1,4.1,0,0,1-1.877,1.92C29.637,24.743,6.514,24.743,3.571,23.761Zm9.556-6.271c3.626-1.877,7.21-3.754,10.836-5.631C20.337,9.982,16.753,8.1,13.127,6.185Z" transform="translate(0.022 0.001)" fill="#ff5405"/>
</svg>
